<?xml version="1.0" standalone="no"?>
<!DOCTYPE svg PUBLIC "-//W3C//DTD SVG 20010904//EN"
 "http://www.w3.org/TR/2001/REC-SVG-20010904/DTD/svg10.dtd">
<svg version="1.0" xmlns="http://www.w3.org/2000/svg"
 width="512.000000pt" height="512.000000pt" viewBox="0 0 512.000000 512.000000"
 preserveAspectRatio="xMidYMid meet">

<g transform="translate(0.000000,512.000000) scale(0.100000,-0.100000)"
fill="#fff" stroke="none">
<path d="M3330 5105 c-305 -42 -571 -162 -815 -367 -79 -66 -214 -210 -223
-238 -6 -17 -21 -11 -75 28 -139 103 -336 192 -521 235 -127 29 -449 31 -576
3 -193 -42 -387 -124 -420 -178 -27 -43 -20 -84 20 -120 40 -37 65 -35 163 8
186 83 328 114 512 114 296 0 559 -95 775 -280 67 -57 90 -70 127 -70 42 0 66
21 138 119 201 274 512 470 852 538 118 23 373 24 499 0 776 -143 1283 -922
1093 -1679 -51 -202 -126 -358 -259 -533 -50 -66 -60 -98 -40 -134 5 -10 44
-48 87 -86 137 -119 210 -240 240 -398 14 -73 15 -103 6 -185 -29 -258 -190
-467 -429 -557 -87 -33 -110 -55 -124 -119 -116 -515 -518 -898 -1038 -987
-138 -23 -250 -24 -390 -3 -351 52 -644 232 -861 527 -64 88 -110 96 -197 36
-76 -52 -228 -119 -331 -145 -637 -163 -1279 295 -1332 951 -22 274 61 550
226 753 144 177 143 170 38 297 -136 164 -228 371 -261 585 -32 217 -6 421 82
643 32 79 34 91 24 123 -24 70 -109 90 -160 37 -45 -46 -114 -244 -141 -403
-20 -112 -17 -366 4 -475 43 -218 133 -422 267 -602 20 -28 21 -34 9 -51 -8
-11 -35 -48 -61 -83 -100 -138 -181 -334 -213 -516 -20 -115 -20 -317 0 -435
78 -452 408 -839 840 -986 331 -113 695 -87 996 69 l78 41 32 -39 c18 -21 71
-76 119 -123 492 -483 1256 -555 1836 -174 294 193 509 488 609 834 l16 55 97
47 c390 189 571 664 411 1080 -36 92 -105 200 -184 286 l-57 62 47 73 c403
626 316 1447 -210 1972 -348 348 -842 516 -1325 450z"/>
<path d="M3505 4571 c-61 -25 -80 -108 -36 -155 62 -66 171 -25 171 64 0 70
-70 117 -135 91z"/>
<path d="M3926 4479 c-40 -11 -65 -36 -72 -74 -9 -52 15 -85 102 -137 134 -79
247 -195 321 -328 48 -88 81 -198 97 -325 12 -102 18 -122 39 -143 36 -35 99
-35 135 2 26 26 27 30 25 129 -3 163 -60 347 -154 492 -74 113 -233 269 -339
331 -97 58 -114 64 -154 53z"/>
<path d="M391 4359 c-50 -50 -38 -124 26 -154 44 -21 85 -12 118 27 29 34 32
66 10 108 -31 60 -104 69 -154 19z"/>
<path d="M1447 3454 c-268 -60 -461 -239 -538 -499 -19 -65 -28 -185 -19 -262
20 -171 79 -292 206 -420 67 -67 98 -89 175 -127 260 -125 544 -92 767 91 75
62 87 125 35 178 -38 38 -90 34 -145 -10 -178 -143 -369 -172 -556 -85 -311
145 -383 563 -139 802 98 97 205 140 347 141 134 1 239 -39 352 -134 63 -54
144 -37 168 35 9 29 8 41 -4 68 -34 70 -201 178 -331 212 -89 24 -236 29 -318
10z"/>
<path d="M2884 3459 c-359 -60 -620 -411 -574 -772 21 -165 82 -288 206 -413
67 -68 96 -89 175 -127 266 -129 552 -92 777 100 106 91 198 254 223 397 16
95 6 253 -21 336 -110 333 -444 536 -786 479z m270 -215 c209 -72 346 -260
346 -474 0 -228 -154 -427 -376 -484 -307 -79 -614 157 -617 474 -2 237 148
430 383 495 67 18 194 13 264 -11z"/>
<path d="M3910 2451 c-114 -37 -189 -131 -190 -234 0 -59 11 -82 52 -103 60
-31 120 -1 139 70 14 53 35 76 70 76 42 0 62 -36 50 -88 -16 -72 -60 -134
-187 -259 -113 -111 -124 -125 -124 -158 0 -92 32 -105 255 -105 197 0 227 7
250 63 29 70 -20 137 -101 137 -24 0 -44 2 -44 5 0 3 20 32 44 65 151 205 146
414 -12 503 -56 31 -152 45 -202 28z"/>
<path d="M576 1744 c-14 -15 -26 -36 -27 -48 -7 -172 50 -344 162 -484 121
-151 315 -253 513 -268 82 -7 83 -6 117 24 28 25 34 37 34 72 0 58 -46 100
-108 100 -102 1 -237 51 -321 120 -125 103 -182 218 -201 402 -8 74 -39 108
-100 108 -32 0 -48 -6 -69 -26z"/>
</g>
</svg>
