<?xml version="1.0" encoding="UTF-8"?>
<!DOCTYPE svg PUBLIC "-//W3C//DTD SVG 1.1//EN" "http://www.w3.org/Graphics/SVG/1.1/DTD/svg11.dtd">
<svg xmlns="http://www.w3.org/2000/svg" version="1.1" width="512px" height="512px" style="shape-rendering:geometricPrecision; text-rendering:geometricPrecision; image-rendering:optimizeQuality; fill-rule:evenodd; clip-rule:evenodd" xmlns:xlink="http://www.w3.org/1999/xlink">
<g><path style="opacity:0.964" fill="#fff" d="M -0.5,272.5 C -0.5,261.167 -0.5,249.833 -0.5,238.5C 9.63541,172.858 45.9687,128.691 108.5,106C 118.005,103.207 127.672,101.207 137.5,100C 175.15,98.6101 212.816,98.1101 250.5,98.5C 250.5,203.167 250.5,307.833 250.5,412.5C 212.816,412.89 175.15,412.39 137.5,411C 72.2342,400.728 28.4009,364.562 6,302.5C 3.36117,292.461 1.1945,282.461 -0.5,272.5 Z M 153.5,129.5 C 175.5,129.5 197.5,129.5 219.5,129.5C 219.5,213.5 219.5,297.5 219.5,381.5C 193.145,381.868 166.812,381.368 140.5,380C 93.4948,372.644 59.9948,347.477 40,304.5C 19.6548,247.381 31.8215,198.548 76.5,158C 99.1776,140.276 124.844,130.776 153.5,129.5 Z"/></g>
<g><path style="opacity:0.959" fill="#fff" d="M 494.5,114.5 C 496.5,114.5 498.5,114.5 500.5,114.5C 502.244,124.218 504.244,133.885 506.5,143.5C 448.308,155.805 389.975,167.472 331.5,178.5C 329.964,169.488 328.298,160.488 326.5,151.5C 326.57,150.228 326.903,149.062 327.5,148C 383.362,137.128 439.029,125.961 494.5,114.5 Z"/></g>
<g><path style="opacity:0.998" fill="#fff" d="M 511.5,240.5 C 511.5,250.5 511.5,260.5 511.5,270.5C 452.5,270.5 393.5,270.5 334.5,270.5C 334.5,260.5 334.5,250.5 334.5,240.5C 393.5,240.5 452.5,240.5 511.5,240.5 Z"/></g>
<g><path style="opacity:0.959" fill="#fff" d="M 331.5,333.5 C 389.997,344.533 448.331,356.199 506.5,368.5C 504.244,378.115 502.244,387.782 500.5,397.5C 442.765,386.786 385.098,375.62 327.5,364C 326.903,362.938 326.57,361.772 326.5,360.5C 328.298,351.512 329.964,342.512 331.5,333.5 Z"/></g>
</svg>
