<?xml version="1.0" encoding="UTF-8"?>
<!DOCTYPE svg PUBLIC "-//W3C//DTD SVG 1.1//EN" "http://www.w3.org/Graphics/SVG/1.1/DTD/svg11.dtd">
<svg xmlns="http://www.w3.org/2000/svg" version="1.1" width="512px" height="512px" style="shape-rendering:geometricPrecision; text-rendering:geometricPrecision; image-rendering:optimizeQuality; fill-rule:evenodd; clip-rule:evenodd" xmlns:xlink="http://www.w3.org/1999/xlink">
<g><path style="opacity:0.932" fill="#000000" d="M 379.5,-0.5 C 382.167,-0.5 384.833,-0.5 387.5,-0.5C 389.475,0.646381 390.975,2.31305 392,4.5C 392.499,8.48617 392.666,12.4862 392.5,16.5C 396.514,16.3345 400.514,16.5012 404.5,17C 409.069,19.5414 410.569,23.3747 409,28.5C 408.215,30.286 407.049,31.786 405.5,33C 401.249,34.1946 396.915,34.6946 392.5,34.5C 392.867,38.9671 392.367,43.3004 391,47.5C 386,52.8333 381,52.8333 376,47.5C 374.633,43.3004 374.133,38.9671 374.5,34.5C 370.085,34.6946 365.751,34.1946 361.5,33C 357.329,29.1457 356.496,24.6457 359,19.5C 359.903,18.2986 361.069,17.4652 362.5,17C 366.486,16.5012 370.486,16.3345 374.5,16.5C 374.334,12.4862 374.501,8.48617 375,4.5C 376.025,2.31305 377.525,0.646381 379.5,-0.5 Z"/></g>
<g><path style="opacity:0.927" fill="#000000" d="M 106.5,16.5 C 120.504,16.3334 134.504,16.5001 148.5,17C 153.069,19.5414 154.569,23.3747 153,28.5C 151.62,31.8829 149.12,33.7162 145.5,34C 132.11,34.9243 118.777,34.591 105.5,33C 99.9534,27.0318 100.287,21.5318 106.5,16.5 Z"/></g>
<g><path style="opacity:0.938" fill="#000000" d="M 251.5,33.5 C 254.187,33.3359 256.854,33.5026 259.5,34C 261.667,34.8333 263.167,36.3333 264,38.5C 264.5,51.1623 264.667,63.8289 264.5,76.5C 291.894,79.61 314.061,91.9433 331,113.5C 343.5,101.667 356,89.8333 368.5,78C 376.847,73.5576 382.18,75.8909 384.5,85C 384,86.5 383.5,88 383,89.5C 343.667,126.167 304.333,162.833 265,199.5C 264.667,219.167 264.333,238.833 264,258.5C 261.006,264.365 256.506,265.865 250.5,263C 248.951,261.786 247.785,260.286 247,258.5C 246.667,238.833 246.333,219.167 246,199.5C 206.667,162.833 167.333,126.167 128,89.5C 125.496,81.8383 128.163,77.1716 136,75.5C 138.321,75.9095 140.487,76.7428 142.5,78C 155,89.8333 167.5,101.667 180,113.5C 196.939,91.9433 219.106,79.61 246.5,76.5C 246.333,63.8289 246.5,51.1623 247,38.5C 248.025,36.313 249.525,34.6464 251.5,33.5 Z M 243.5,94.5 C 244.5,94.5 245.5,94.5 246.5,94.5C 246.667,121.169 246.5,147.835 246,174.5C 228.5,158.333 211,142.167 193.5,126C 206.246,109.135 222.912,98.6349 243.5,94.5 Z M 264.5,94.5 C 286.468,97.8153 304.135,108.315 317.5,126C 300,142.167 282.5,158.333 265,174.5C 264.5,147.835 264.333,121.169 264.5,94.5 Z"/></g>
<g><path style="opacity:0.944" fill="#000000" d="M 511.5,233.5 C 511.5,239.167 511.5,244.833 511.5,250.5C 498.265,327.959 485.431,405.626 473,483.5C 469.831,497.829 461.331,507.163 447.5,511.5C 441.5,511.5 435.5,511.5 429.5,511.5C 401.656,506.581 373.656,501.747 345.5,497C 329.848,491.664 321.181,480.664 319.5,464C 322.456,444.098 325.789,424.265 329.5,404.5C 323.571,403.012 317.571,401.845 311.5,401C 302.611,397.777 297.944,391.444 297.5,382C 299.308,371.178 300.974,360.344 302.5,349.5C 271.167,349.5 239.833,349.5 208.5,349.5C 210.212,360.316 211.879,371.149 213.5,382C 213.056,391.444 208.389,397.777 199.5,401C 193.429,401.845 187.429,403.012 181.5,404.5C 185.42,423.856 188.42,443.356 190.5,463C 190.188,480.303 181.854,491.636 165.5,497C 137.346,501.747 109.346,506.58 81.5,511.5C 75.5,511.5 69.5,511.5 63.5,511.5C 51.2777,507.779 43.111,499.779 39,487.5C 26.0268,408.327 12.8601,329.327 -0.5,250.5C -0.5,244.833 -0.5,239.167 -0.5,233.5C 3.05806,222.1 10.3914,213.934 21.5,209C 50.7808,203.722 80.1141,198.722 109.5,194C 128.035,191.183 141.535,198.017 150,214.5C 153.335,231.848 156.669,249.182 160,266.5C 168.365,263.644 176.865,263.144 185.5,265C 190.731,267.232 194.231,271.065 196,276.5C 197.6,283.435 198.767,290.435 199.5,297.5C 236.833,297.5 274.167,297.5 311.5,297.5C 312.233,290.435 313.4,283.435 315,276.5C 318.546,268.218 324.88,263.885 334,263.5C 339.782,264.074 345.449,265.074 351,266.5C 354.331,249.182 357.665,231.848 361,214.5C 369.465,198.017 382.965,191.183 401.5,194C 430.911,198.568 460.244,203.568 489.5,209C 500.609,213.934 507.942,222.1 511.5,233.5 Z M 115.5,211.5 C 123.537,211.098 129.37,214.432 133,221.5C 146.322,299.767 159.322,378.1 172,456.5C 175.02,468.378 170.853,476.045 159.5,479.5C 145.048,390.124 130.382,300.791 115.5,211.5 Z M 388.5,211.5 C 390.857,211.337 393.19,211.503 395.5,212C 380.568,301.092 365.901,390.258 351.5,479.5C 340.147,476.045 335.98,468.378 339,456.5C 351.667,379.167 364.333,301.833 377,224.5C 378.589,218.083 382.423,213.749 388.5,211.5 Z M 93.5,214.5 C 95.1439,214.286 96.6439,214.62 98,215.5C 98.7808,218.834 99.1141,222.167 99,225.5C 84.1562,235.922 69.4895,246.589 55,257.5C 52.4138,246.663 50.2471,235.663 48.5,224.5C 48.8333,223.833 49.1667,223.167 49.5,222.5C 64.3251,220.031 78.9918,217.364 93.5,214.5 Z M 413.5,214.5 C 429.542,216.951 445.542,219.618 461.5,222.5C 461.833,223.167 462.167,223.833 462.5,224.5C 460.753,235.663 458.586,246.663 456,257.5C 441.765,246.633 427.265,236.133 412.5,226C 411.775,222.147 412.109,218.314 413.5,214.5 Z M 28.5,225.5 C 29.9311,225.881 30.7645,226.881 31,228.5C 45.1783,316.569 59.6783,404.569 74.5,492.5C 64.958,493.966 58.7914,489.966 56,480.5C 43.3333,403.167 30.6667,325.833 18,248.5C 15.5851,238.003 19.0851,230.336 28.5,225.5 Z M 480.5,225.5 C 491.433,229.36 495.6,237.027 493,248.5C 480.333,325.833 467.667,403.167 455,480.5C 452.228,489.959 446.061,493.959 436.5,492.5C 451.491,403.556 466.157,314.556 480.5,225.5 Z M 101.5,245.5 C 102.117,245.611 102.617,245.944 103,246.5C 104.338,253.516 105.338,260.516 106,267.5C 91.3062,278.36 76.4728,289.027 61.5,299.5C 59.5682,292.244 58.4015,284.911 58,277.5C 72.8343,267.178 87.3343,256.512 101.5,245.5 Z M 408.5,245.5 C 423.216,256.28 438.049,266.946 453,277.5C 452.599,284.911 451.432,292.244 449.5,299.5C 434.527,289.027 419.694,278.36 405,267.5C 405.622,260.1 406.789,252.766 408.5,245.5 Z M 175.5,281.5 C 177.124,281.36 178.29,282.027 179,283.5C 184.394,316.2 189.894,348.867 195.5,381.5C 194.619,382.971 193.286,383.804 191.5,384C 187.24,384.57 183.074,385.403 179,386.5C 173.608,353.147 168.108,319.813 162.5,286.5C 162.608,285.558 162.941,284.725 163.5,284C 167.699,283.472 171.699,282.639 175.5,281.5 Z M 332.5,281.5 C 337.487,282.331 342.487,283.164 347.5,284C 348.081,284.893 348.415,285.893 348.5,287C 342.838,320.14 337.338,353.307 332,386.5C 327.926,385.403 323.76,384.57 319.5,384C 317.714,383.804 316.381,382.971 315.5,381.5C 321.167,348.163 326.834,314.829 332.5,281.5 Z M 108.5,287.5 C 109.117,287.611 109.617,287.944 110,288.5C 111.125,295.569 112.125,302.569 113,309.5C 98.3062,320.36 83.4728,331.027 68.5,341.5C 66.3538,334.291 65.1872,326.958 65,319.5C 79.8343,309.178 94.3343,298.512 108.5,287.5 Z M 401.5,287.5 C 416.216,298.28 431.049,308.946 446,319.5C 445.813,326.958 444.646,334.291 442.5,341.5C 427.527,331.027 412.694,320.36 398,309.5C 398.835,302.154 400.002,294.821 401.5,287.5 Z M 202.5,315.5 C 237.84,315.167 273.173,315.5 308.5,316.5C 307.5,321.167 306.5,325.833 305.5,330.5C 272.167,331.833 238.833,331.833 205.5,330.5C 204.392,325.515 203.392,320.515 202.5,315.5 Z M 115.5,329.5 C 116.222,329.918 116.722,330.584 117,331.5C 118.011,338.072 119.178,344.572 120.5,351C 105.64,362.027 90.6397,372.86 75.5,383.5C 73.1401,376.341 71.9734,369.008 72,361.5C 86.8343,351.178 101.334,340.512 115.5,329.5 Z M 394.5,329.5 C 409.216,340.28 424.049,350.946 439,361.5C 439.027,369.008 437.86,376.341 435.5,383.5C 420.36,372.86 405.36,362.027 390.5,351C 391.97,343.881 393.304,336.714 394.5,329.5 Z M 122.5,371.5 C 124.531,378.483 126.198,385.65 127.5,393C 112.64,404.027 97.6397,414.86 82.5,425.5C 80.1444,418.366 78.9777,411.032 79,403.5C 93.8343,393.178 108.334,382.512 122.5,371.5 Z M 387.5,371.5 C 402.137,382.157 416.804,392.824 431.5,403.5C 431.833,404.5 432.167,405.5 432.5,406.5C 431.718,412.998 430.384,419.332 428.5,425.5C 413.36,414.86 398.36,404.027 383.5,393C 385.099,385.911 386.432,378.745 387.5,371.5 Z M 129.5,413.5 C 132.12,420.899 133.12,428.566 132.5,436.5C 117.911,447.045 103.411,457.711 89,468.5C 86.8402,460.901 86.0069,453.234 86.5,445.5C 101.08,435.056 115.413,424.389 129.5,413.5 Z M 380.5,413.5 C 395.137,424.157 409.804,434.824 424.5,445.5C 424.993,453.234 424.16,460.901 422,468.5C 407.589,457.711 393.089,447.045 378.5,436.5C 378.167,435.333 377.833,434.167 377.5,433C 378.556,426.498 379.556,419.998 380.5,413.5 Z M 136.5,455.5 C 138.472,463.637 140.138,471.97 141.5,480.5C 141.392,481.442 141.059,482.275 140.5,483C 125.307,485.338 110.14,487.838 95,490.5C 93.5962,490.491 92.4296,489.991 91.5,489C 106.683,477.97 121.683,466.803 136.5,455.5 Z M 373.5,455.5 C 388.955,466.449 404.288,477.615 419.5,489C 418.57,489.991 417.404,490.491 416,490.5C 400.86,487.838 385.693,485.338 370.5,483C 369.941,482.275 369.608,481.442 369.5,480.5C 371.159,472.21 372.493,463.877 373.5,455.5 Z"/></g>
</svg>
