<?xml version="1.0" encoding="UTF-8"?>
<!DOCTYPE svg PUBLIC "-//W3C//DTD SVG 1.1//EN" "http://www.w3.org/Graphics/SVG/1.1/DTD/svg11.dtd">
<svg xmlns="http://www.w3.org/2000/svg" version="1.1" width="512px" height="512px" style="shape-rendering:geometricPrecision; text-rendering:geometricPrecision; image-rendering:optimizeQuality; fill-rule:evenodd; clip-rule:evenodd" xmlns:xlink="http://www.w3.org/1999/xlink">
<g><path style="opacity:0.978" fill="#000000" d="M 80.5,15.5 C 95.837,15.3334 111.17,15.5001 126.5,16C 134.667,18.8333 140.167,24.3333 143,32.5C 143.5,48.1631 143.667,63.8298 143.5,79.5C 144.873,79.6567 146.207,79.49 147.5,79C 163.195,62.9709 179.195,47.3043 195.5,32C 235.5,31.3333 275.5,31.3333 315.5,32C 331.805,47.3043 347.805,62.9709 363.5,79C 364.793,79.49 366.127,79.6567 367.5,79.5C 367.333,63.8298 367.5,48.1631 368,32.5C 370.833,24.3333 376.333,18.8333 384.5,16C 399.833,15.3333 415.167,15.3333 430.5,16C 438.667,18.8333 444.167,24.3333 447,32.5C 447.667,69.1667 447.667,105.833 447,142.5C 444.167,150.667 438.667,156.167 430.5,159C 415.167,159.667 399.833,159.667 384.5,159C 376.333,156.167 370.833,150.667 368,142.5C 367.5,126.837 367.333,111.17 367.5,95.5C 366.127,95.3433 364.793,95.51 363.5,96C 354.333,105.167 345.167,114.333 336,123.5C 335.5,215.499 335.333,307.499 335.5,399.5C 346.167,399.5 356.833,399.5 367.5,399.5C 367.334,389.161 367.5,378.828 368,368.5C 370.833,360.333 376.333,354.833 384.5,352C 399.833,351.333 415.167,351.333 430.5,352C 438.667,354.833 444.167,360.333 447,368.5C 447.667,405.167 447.667,441.833 447,478.5C 444.167,486.667 438.667,492.167 430.5,495C 415.167,495.667 399.833,495.667 384.5,495C 376.333,492.167 370.833,486.667 368,478.5C 367.5,468.172 367.334,457.839 367.5,447.5C 340.825,447.167 314.158,447.5 287.5,448.5C 273.652,463.96 256.985,467.793 237.5,460C 231.874,457.351 227.207,453.518 223.5,448.5C 196.842,447.5 170.175,447.167 143.5,447.5C 143.666,457.839 143.5,468.172 143,478.5C 140.167,486.667 134.667,492.167 126.5,495C 111.167,495.667 95.8333,495.667 80.5,495C 72.3333,492.167 66.8333,486.667 64,478.5C 63.3333,441.833 63.3333,405.167 64,368.5C 66.8333,360.333 72.3333,354.833 80.5,352C 95.8333,351.333 111.167,351.333 126.5,352C 134.667,354.833 140.167,360.333 143,368.5C 143.5,378.828 143.666,389.161 143.5,399.5C 154.167,399.5 164.833,399.5 175.5,399.5C 175.667,307.499 175.5,215.499 175,123.5C 165.833,114.333 156.667,105.167 147.5,96C 146.207,95.51 144.873,95.3433 143.5,95.5C 143.667,111.17 143.5,126.837 143,142.5C 140.167,150.667 134.667,156.167 126.5,159C 111.167,159.667 95.8333,159.667 80.5,159C 72.3333,156.167 66.8333,150.667 64,142.5C 63.3333,105.833 63.3333,69.1667 64,32.5C 67.0191,24.3156 72.5191,18.649 80.5,15.5 Z M 87.5,31.5 C 98.1719,31.3335 108.839,31.5002 119.5,32C 124,32.5 126.5,35 127,39.5C 127.5,47.4931 127.666,55.4931 127.5,63.5C 126.127,63.6567 124.793,63.49 123.5,63C 118.468,57.6335 113.135,52.6335 107.5,48C 98.1726,47.5002 88.8393,47.3335 79.5,47.5C 79.0011,42.6355 80.0011,38.1355 82.5,34C 84.3146,33.2432 85.9812,32.4098 87.5,31.5 Z M 391.5,31.5 C 403.243,31.0645 414.91,31.5645 426.5,33C 428.333,33.5 429.5,34.6667 430,36.5C 431.237,40.0601 431.737,43.7267 431.5,47.5C 422.161,47.3335 412.827,47.5002 403.5,48C 397.865,52.6335 392.532,57.6335 387.5,63C 386.207,63.49 384.873,63.6567 383.5,63.5C 383.334,55.4931 383.5,47.4931 384,39.5C 384.68,34.9895 387.18,32.3228 391.5,31.5 Z M 203.5,47.5 C 238.168,47.3333 272.835,47.5 307.5,48C 317.833,58.3333 328.167,68.6667 338.5,79C 283.167,79.6667 227.833,79.6667 172.5,79C 183.035,68.6317 193.369,58.1317 203.5,47.5 Z M 79.5,63.5 C 86.175,63.3337 92.8417,63.5004 99.5,64C 104.167,68.6667 108.833,73.3333 113.5,78C 118.036,79.3789 122.703,79.8789 127.5,79.5C 127.5,84.8333 127.5,90.1667 127.5,95.5C 126.127,95.6567 124.793,95.49 123.5,95C 118.468,89.6335 113.135,84.6335 107.5,80C 98.1726,79.5002 88.8393,79.3335 79.5,79.5C 79.5,74.1667 79.5,68.8333 79.5,63.5 Z M 411.5,63.5 C 418.167,63.5 424.833,63.5 431.5,63.5C 431.5,68.8333 431.5,74.1667 431.5,79.5C 422.161,79.3335 412.827,79.5002 403.5,80C 397.865,84.6335 392.532,89.6335 387.5,95C 386.207,95.49 384.873,95.6567 383.5,95.5C 383.5,90.1667 383.5,84.8333 383.5,79.5C 388.297,79.8789 392.964,79.3789 397.5,78C 402.37,73.2979 407.037,68.4646 411.5,63.5 Z M 79.5,95.5 C 86.175,95.3337 92.8417,95.5004 99.5,96C 104.167,100.667 108.833,105.333 113.5,110C 118.036,111.379 122.703,111.879 127.5,111.5C 127.5,116.833 127.5,122.167 127.5,127.5C 126.127,127.657 124.793,127.49 123.5,127C 118.468,121.633 113.135,116.633 107.5,112C 98.1726,111.5 88.8393,111.334 79.5,111.5C 79.5,106.167 79.5,100.833 79.5,95.5 Z M 172.5,96.5 C 227.665,95.3348 282.998,95.1682 338.5,96C 331.968,102.198 325.801,108.698 320,115.5C 319.5,210.166 319.333,304.833 319.5,399.5C 314.167,399.5 308.833,399.5 303.5,399.5C 303.666,392.825 303.5,386.158 303,379.5C 298.367,373.865 293.367,368.532 288,363.5C 287.501,359.514 287.334,355.514 287.5,351.5C 291.514,351.666 295.514,351.499 299.5,351C 300.416,350.626 301.25,350.126 302,349.5C 303.143,339.595 303.643,329.595 303.5,319.5C 303.333,310.167 303.167,300.833 303,291.5C 302.5,289.667 301.333,288.5 299.5,288C 295.514,287.501 291.514,287.334 287.5,287.5C 287.334,280.825 287.5,274.158 288,267.5C 293.367,262.468 298.367,257.135 303,251.5C 303.667,211.5 303.667,171.5 303,131.5C 297.684,125.017 291.851,119.017 285.5,113.5C 281.167,117.167 277.167,121.167 273.5,125.5C 277.818,130.319 282.318,134.985 287,139.5C 287.667,174.167 287.667,208.833 287,243.5C 281.633,248.532 276.633,253.865 272,259.5C 271.5,268.827 271.334,278.161 271.5,287.5C 267.486,287.334 263.486,287.501 259.5,288C 258.584,288.374 257.75,288.874 257,289.5C 255.857,299.405 255.357,309.405 255.5,319.5C 255.667,328.833 255.833,338.167 256,347.5C 256.5,349.333 257.667,350.5 259.5,351C 263.486,351.499 267.486,351.666 271.5,351.5C 271.334,358.175 271.5,364.842 272,371.5C 276.633,377.135 281.633,382.468 287,387.5C 287.667,390.833 287.667,394.167 287,397.5C 272.945,382.957 256.445,379.457 237.5,387C 232.367,389.654 227.867,393.154 224,397.5C 223.333,311.5 223.333,225.5 224,139.5C 228.682,134.985 233.182,130.319 237.5,125.5C 233.802,120.616 229.468,116.782 224.5,114C 218.634,119.531 213.134,125.365 208,131.5C 207.5,220.833 207.333,310.166 207.5,399.5C 202.167,399.5 196.833,399.5 191.5,399.5C 191.667,304.833 191.5,210.166 191,115.5C 185.329,108.663 179.162,102.329 172.5,96.5 Z M 411.5,95.5 C 418.167,95.5 424.833,95.5 431.5,95.5C 431.5,100.833 431.5,106.167 431.5,111.5C 422.161,111.334 412.827,111.5 403.5,112C 397.865,116.633 392.532,121.633 387.5,127C 386.207,127.49 384.873,127.657 383.5,127.5C 383.5,122.167 383.5,116.833 383.5,111.5C 388.297,111.879 392.964,111.379 397.5,110C 402.37,105.298 407.037,100.465 411.5,95.5 Z M 79.5,127.5 C 86.175,127.334 92.8417,127.5 99.5,128C 104.532,133.367 109.865,138.367 115.5,143C 105.093,143.926 94.7595,143.592 84.5,142C 82.6667,141.5 81.5,140.333 81,138.5C 79.7633,134.94 79.2633,131.273 79.5,127.5 Z M 411.5,127.5 C 418.167,127.5 424.833,127.5 431.5,127.5C 431.999,132.364 430.999,136.864 428.5,141C 426.913,141.862 425.246,142.529 423.5,143C 414.167,143.667 404.833,143.667 395.5,143C 401.337,138.33 406.67,133.163 411.5,127.5 Z M 271.5,303.5 C 276.833,303.5 282.167,303.5 287.5,303.5C 287.5,314.167 287.5,324.833 287.5,335.5C 282.167,335.5 276.833,335.5 271.5,335.5C 271.5,324.833 271.5,314.167 271.5,303.5 Z M 87.5,367.5 C 98.1719,367.333 108.839,367.5 119.5,368C 124,368.5 126.5,371 127,375.5C 127.5,383.493 127.666,391.493 127.5,399.5C 126.127,399.657 124.793,399.49 123.5,399C 118.468,393.633 113.135,388.633 107.5,384C 98.1726,383.5 88.8393,383.334 79.5,383.5C 79.0011,378.636 80.0011,374.136 82.5,370C 84.3146,369.243 85.9812,368.41 87.5,367.5 Z M 391.5,367.5 C 403.243,367.064 414.91,367.564 426.5,369C 428.333,369.5 429.5,370.667 430,372.5C 431.237,376.06 431.737,379.727 431.5,383.5C 422.161,383.334 412.827,383.5 403.5,384C 397.865,388.633 392.532,393.633 387.5,399C 386.207,399.49 384.873,399.657 383.5,399.5C 383.334,391.493 383.5,383.493 384,375.5C 384.68,370.989 387.18,368.323 391.5,367.5 Z M 79.5,399.5 C 86.175,399.334 92.8417,399.5 99.5,400C 104.167,404.667 108.833,409.333 113.5,414C 118.036,415.379 122.703,415.879 127.5,415.5C 127.5,420.833 127.5,426.167 127.5,431.5C 126.127,431.657 124.793,431.49 123.5,431C 118.468,425.633 113.135,420.633 107.5,416C 98.1726,415.5 88.8393,415.334 79.5,415.5C 79.5,410.167 79.5,404.833 79.5,399.5 Z M 411.5,399.5 C 418.167,399.5 424.833,399.5 431.5,399.5C 431.5,404.833 431.5,410.167 431.5,415.5C 422.161,415.334 412.827,415.5 403.5,416C 397.865,420.633 392.532,425.633 387.5,431C 386.207,431.49 384.873,431.657 383.5,431.5C 383.5,426.167 383.5,420.833 383.5,415.5C 388.297,415.879 392.964,415.379 397.5,414C 402.37,409.298 407.037,404.465 411.5,399.5 Z M 249.5,400.5 C 256.221,399.751 262.554,400.918 268.5,404C 272.203,407.367 275.536,411.034 278.5,415C 308.165,415.5 337.831,415.667 367.5,415.5C 367.5,420.833 367.5,426.167 367.5,431.5C 337.831,431.333 308.165,431.5 278.5,432C 269.717,446.373 257.717,450.04 242.5,443C 238.797,439.633 235.464,435.966 232.5,432C 202.835,431.5 173.169,431.333 143.5,431.5C 143.5,426.167 143.5,420.833 143.5,415.5C 172.835,415.667 202.169,415.5 231.5,415C 235.14,411.36 238.806,407.694 242.5,404C 244.925,402.787 247.259,401.621 249.5,400.5 Z M 79.5,431.5 C 86.175,431.334 92.8417,431.5 99.5,432C 104.167,436.667 108.833,441.333 113.5,446C 118.036,447.379 122.703,447.879 127.5,447.5C 127.5,452.833 127.5,458.167 127.5,463.5C 126.127,463.657 124.793,463.49 123.5,463C 118.468,457.633 113.135,452.633 107.5,448C 98.1726,447.5 88.8393,447.334 79.5,447.5C 79.5,442.167 79.5,436.833 79.5,431.5 Z M 411.5,431.5 C 418.167,431.5 424.833,431.5 431.5,431.5C 431.5,436.833 431.5,442.167 431.5,447.5C 422.161,447.334 412.827,447.5 403.5,448C 397.865,452.633 392.532,457.633 387.5,463C 386.207,463.49 384.873,463.657 383.5,463.5C 383.5,458.167 383.5,452.833 383.5,447.5C 388.297,447.879 392.964,447.379 397.5,446C 402.37,441.298 407.037,436.465 411.5,431.5 Z M 79.5,463.5 C 86.175,463.334 92.8417,463.5 99.5,464C 104.532,469.367 109.865,474.367 115.5,479C 105.093,479.926 94.7595,479.592 84.5,478C 82.6667,477.5 81.5,476.333 81,474.5C 79.7633,470.94 79.2633,467.273 79.5,463.5 Z M 411.5,463.5 C 418.167,463.5 424.833,463.5 431.5,463.5C 431.999,468.364 430.999,472.864 428.5,477C 426.913,477.862 425.246,478.529 423.5,479C 414.167,479.667 404.833,479.667 395.5,479C 401.337,474.33 406.67,469.163 411.5,463.5 Z"/></g>
</svg>
