<?xml version="1.0" encoding="UTF-8"?>
<!DOCTYPE svg PUBLIC "-//W3C//DTD SVG 1.1//EN" "http://www.w3.org/Graphics/SVG/1.1/DTD/svg11.dtd">
<svg xmlns="http://www.w3.org/2000/svg" version="1.1" width="512px" height="512px" style="shape-rendering:geometricPrecision; text-rendering:geometricPrecision; image-rendering:optimizeQuality; fill-rule:evenodd; clip-rule:evenodd" xmlns:xlink="http://www.w3.org/1999/xlink">
<g><path style="opacity:0.98" fill="#000000" d="M 158.5,-0.5 C 223.5,-0.5 288.5,-0.5 353.5,-0.5C 366.427,5.14133 372.427,15.1413 371.5,29.5C 383.171,29.3335 394.838,29.5001 406.5,30C 429.667,35.8333 444.167,50.3333 450,73.5C 450.667,203.833 450.667,334.167 450,464.5C 445.181,489.815 430.348,505.482 405.5,511.5C 305.167,511.5 204.833,511.5 104.5,511.5C 81.5151,505.348 67.0151,490.681 61,467.5C 60.3333,337.167 60.3333,206.833 61,76.5C 65.6078,51.2253 80.4412,35.7253 105.5,30C 117.162,29.5001 128.829,29.3335 140.5,29.5C 138.856,14.7707 144.856,4.77065 158.5,-0.5 Z M 171.5,29.5 C 227.833,29.5 284.167,29.5 340.5,29.5C 340.5,39.5 340.5,49.5 340.5,59.5C 284.167,59.5 227.833,59.5 171.5,59.5C 171.5,49.5 171.5,39.5 171.5,29.5 Z M 115.5,59.5 C 123.833,59.5 132.167,59.5 140.5,59.5C 138.733,74.141 144.733,83.9744 158.5,89C 223.167,89.6667 287.833,89.6667 352.5,89C 366.214,84.0872 372.547,74.2539 371.5,59.5C 379.507,59.3336 387.507,59.5003 395.5,60C 410.333,61.5 418.5,69.6667 420,84.5C 419.722,210.161 419.389,335.828 419,461.5C 415.401,473.099 407.568,479.599 395.5,481C 302.167,481.667 208.833,481.667 115.5,481C 103.764,480.384 95.9307,474.551 92,463.5C 90.9802,455.873 90.4802,448.206 90.5,440.5C 91.3024,320.17 91.8024,199.837 92,79.5C 95.7381,67.9224 103.571,61.2557 115.5,59.5 Z"/></g>
<g><path style="opacity:0.957" fill="#000000" d="M 204.5,138.5 C 215.911,137.917 221.911,143.25 222.5,154.5C 222.705,157.795 221.872,160.795 220,163.5C 203.833,179.667 187.667,195.833 171.5,212C 165.167,215.333 158.833,215.333 152.5,212C 145.333,204.833 138.167,197.667 131,190.5C 125.341,179.771 127.841,171.605 138.5,166C 143.44,164.959 148.106,165.626 152.5,168C 155.667,171.167 158.833,174.333 162,177.5C 173.833,165.667 185.667,153.833 197.5,142C 199.925,140.787 202.259,139.621 204.5,138.5 Z"/></g>
<g><path style="opacity:0.988" fill="#000000" d="M 254.5,169.5 C 293.835,169.333 333.168,169.5 372.5,170C 382.723,175.295 385.223,183.128 380,193.5C 378.062,196.106 375.562,197.939 372.5,199C 333.167,199.667 293.833,199.667 254.5,199C 245.639,193.734 243.139,186.234 247,176.5C 249.396,173.933 251.896,171.6 254.5,169.5 Z"/></g>
<g><path style="opacity:0.951" fill="#000000" d="M 203.5,246.5 C 220.5,247.157 226,255.491 220,271.5C 203.833,287.667 187.667,303.833 171.5,320C 164.049,323.801 157.049,323.135 150.5,318C 142.596,310.766 135.429,302.933 129,294.5C 126.05,282.073 130.883,274.739 143.5,272.5C 147.054,273.055 150.387,274.221 153.5,276C 156.349,279.016 159.349,281.85 162.5,284.5C 174.653,272.848 186.653,261.014 198.5,249C 200.315,248.243 201.981,247.41 203.5,246.5 Z"/></g>
<g><path style="opacity:0.988" fill="#000000" d="M 254.5,269.5 C 293.835,269.333 333.168,269.5 372.5,270C 382.723,275.295 385.223,283.128 380,293.5C 378.062,296.106 375.562,297.939 372.5,299C 333.167,299.667 293.833,299.667 254.5,299C 245.639,293.734 243.139,286.234 247,276.5C 249.396,273.933 251.896,271.6 254.5,269.5 Z"/></g>
<g><path style="opacity:0.951" fill="#000000" d="M 203.5,346.5 C 220.5,347.157 226,355.491 220,371.5C 203.833,387.667 187.667,403.833 171.5,420C 164.049,423.801 157.049,423.135 150.5,418C 142.596,410.766 135.429,402.933 129,394.5C 126.05,382.073 130.883,374.739 143.5,372.5C 147.054,373.055 150.387,374.221 153.5,376C 156.349,379.016 159.349,381.85 162.5,384.5C 174.653,372.848 186.653,361.014 198.5,349C 200.315,348.243 201.981,347.41 203.5,346.5 Z"/></g>
<g><path style="opacity:0.987" fill="#000000" d="M 254.5,369.5 C 294.168,369.333 333.835,369.5 373.5,370C 383.94,376.598 385.773,385.098 379,395.5C 377.167,396.667 375.333,397.833 373.5,399C 333.833,399.667 294.167,399.667 254.5,399C 245.639,393.734 243.139,386.234 247,376.5C 249.396,373.933 251.896,371.6 254.5,369.5 Z"/></g>
</svg>
